
        <svg xmlns="http://www.w3.org/2000/svg" xmlns:xlink="http://www.w3.org/1999/xlink" version="1.1" width="3161.623003313938" 
        height="982.3648170175309" viewBox="0 0 3161.623003313938 982.3648170175309">
			
			<g transform="scale(8.081150165696913) translate(10, 10)">
				<defs id="SvgjsDefs8900"></defs><g id="SvgjsG8901" featureKey="symbolGroupContainer" transform="matrix(0.9589263022059986,0,0,0.9589263022059986,0.024056620635442054,0.000008122346064920267)" fill="#8a0917"><path xmlns="http://www.w3.org/2000/svg" d="M101.3 44.9l-.5-2.1a48.1 48.1 0 0 0-1.3-6.1c-.3-1.1-.7-2.2-1.1-3.3l-.6-1.6-.7-1.6A50.9 50.9 0 0 0 78.7 8.5a50.5 50.5 0 0 0-20.6-8 55.7 55.7 0 0 0-7.4-.5A50.7 50.7 0 0 0 4.3 30.2l-.7 1.6-.6 1.6c-.4 1.1-.8 2.2-1.1 3.3a50.1 50.1 0 0 0-1.4 6.7 51.4 51.4 0 0 0-.2 13.1 53 53 0 0 0 1.4 7.3l.3 1.5a50.6 50.6 0 0 0 5 13.9 52.4 52.4 0 0 0 4 6.3 55.9 55.9 0 0 0 4.9 5.6A50.7 50.7 0 0 0 70 102.5l1.6-.7 1.6-.7 3.1-1.6a50.1 50.1 0 0 0 5.7-3.6 51.5 51.5 0 0 0 9.4-9.1 50.6 50.6 0 0 0 6.5-10.6 51.7 51.7 0 0 0 3.5-11.1 51.1 51.1 0 0 0-.1-20.2zm-.8-1.5a52.2 52.2 0 0 1 .2 13.1 50.3 50.3 0 0 1-2.9 12 51.5 51.5 0 0 1-5.3 10.3l-.3.4a45.4 45.4 0 0 0 2.8-5.1c.5-1 .8-2 1.2-3s.7-2 1-3a46.3 46.3 0 0 0 1.2-6.1c.1-1 .3-2 .3-3.1s.1-1 .1-1.5v-1.5c0-1 0-2-.1-3s-.1-2-.3-3a46.5 46.5 0 0 0-2.7-11.1 47.5 47.5 0 0 0-4.9-9.5 47 47 0 0 0-10.2-10.9 46.8 46.8 0 0 0-53.8-7.1l4.1-2.1a51.6 51.6 0 0 1 11-3.6 50.9 50.9 0 0 1 20.1.2 50 50 0 0 1 14.6 5.5 48.2 48.2 0 0 1 8.3 5.7l2 1.8.7.6.6.7 1.8 2a48.1 48.1 0 0 1 5.8 8.2 50.6 50.6 0 0 1 4.1 9.7c.3 1.1.5 2.3.6 3.4zM2.3 65.2A50.7 50.7 0 0 1 3 42.3l-.3 1.4A47 47 0 0 0 5 69.8c.4 1 .8 2 1.3 3s.9 1.9 1.5 2.8a46.3 46.3 0 0 0 3.4 5.3l1.9 2.4 1 1.2 1 1.1 2.2 2.1 2.3 1.9 2.5 1.8a45.4 45.4 0 0 0 4.1 3 47.3 47.3 0 0 0 6.9 3.7A49.3 49.3 0 0 1 23 93 51 51 0 0 1 8.7 78.8a51.6 51.6 0 0 1-5.3-10.3q-.5-1.4-1-2.9zm75.2 28.2a45.9 45.9 0 0 1-12 5.6 47.2 47.2 0 0 1-6.6 1.4 50.5 50.5 0 0 1-6.7.5A45.7 45.7 0 0 1 35 97.5l4.5 1.1a47.1 47.1 0 0 0 18.6-.2 47.4 47.4 0 0 0 13.4-5.1A44.2 44.2 0 0 0 79 88l1.8-1.6.6-.6.6-.6 1.7-1.8a44.3 44.3 0 0 0 5.4-7.5 47.8 47.8 0 0 0 5.2-13.4 47.2 47.2 0 0 0 .3-18.7 46 46 0 0 0-9.1-20.1c-.9-1.1-1.8-2.2-2.8-3.3a46.2 46.2 0 0 1 7.9 9.1 47.1 47.1 0 0 1 4.7 9.5 45.9 45.9 0 0 1 2.6 11c.1 1 .2 1.9.2 2.9s.1 2 0 3v1.5c0 .5-.1 1-.1 1.5s-.2 2-.3 3a45.5 45.5 0 0 1-1.3 6c-.3 1-.6 2-1 3s-.7 2-1.2 2.9a46 46 0 0 1-16.7 19.6zm-9.3-81.6l2.5 1.3a44.9 44.9 0 0 1 5.1 3.3l2.3 1.9 1.1 1 1.1 1 2.1 2.1 1.9 2.2a45.5 45.5 0 0 1 5.9 9.5 48.1 48.1 0 0 1 3.3 10 46.3 46.3 0 0 1 .1 18.3 45.4 45.4 0 0 1-10.1 20.9l-1.6 1.8-.6.6-.6.6-1.8 1.6a44.1 44.1 0 0 1-7.5 5.3 44.6 44.6 0 0 1-13.4 5 46.4 46.4 0 0 1-18.4 0 47 47 0 0 1-9.4-3l-3.2-2a46.2 46.2 0 0 1-16.5-19.5c-.5-.9-.8-1.9-1.2-2.9s-.7-2-.9-3a45 45 0 0 1-1.3-6c-.1-1-.3-2-.3-3s-.1-1-.1-1.5v-4.4c0-1 .1-1.9.2-2.9a45.6 45.6 0 0 1 2.5-10.9 48.1 48.1 0 0 1 4.7-9.4 46.3 46.3 0 0 1 12.9-13 45.4 45.4 0 0 1 22-7.6h6.5a44 44 0 0 1 9.1 1.6zm-3.6-1.3a44.2 44.2 0 0 0-9.1-1.6h-6.6a44.2 44.2 0 0 0-9.1 1.5 47.9 47.9 0 0 0-13.1 5.8 47.2 47.2 0 0 0-13.4 13 46.6 46.6 0 0 0 3.2 56.7l-.8-.8-1-1.1-1-1.1-1.9-2.4a45.4 45.4 0 0 1-3.3-5.2c-.5-.9-1-1.8-1.4-2.8s-.9-1.9-1.2-2.9a45.9 45.9 0 0 1 2.3-38.2 47.5 47.5 0 0 1 3.6-5.7 50.6 50.6 0 0 1 4.4-5.1A45.6 45.6 0 0 1 39.6 8.3 46.2 46.2 0 0 1 65 10.4l1.5.6zM.5 56.5a51.5 51.5 0 0 1 .2-13.1 50 50 0 0 1 1.4-6.6c.3-1.1.7-2.2 1.1-3.3l.6-1.6.7-1.6a50.4 50.4 0 0 1 92.2 0l.7 1.6.6 1.6c.4 1.1.8 2.2 1 3.3s.4 1.5.6 2.3a50.7 50.7 0 0 0-3.9-8.8 48.3 48.3 0 0 0-5.8-8.2l-1.8-2-.6-.7-.7-.6-2-1.8a48.3 48.3 0 0 0-8.2-5.8 50.1 50.1 0 0 0-14.5-5.6 51.2 51.2 0 0 0-20.2-.1A51.8 51.8 0 0 0 30.8 9 50.5 50.5 0 0 0 7.3 30.7c-.6 1-1.1 2-1.6 3.1L5 35.3l-.7 1.6a51 51 0 0 0-2.9 25 54 54 0 0 1-.9-5.4zm100.8 8.6a51.5 51.5 0 0 1-3.6 11 50.4 50.4 0 0 1-6.5 10.6 51.5 51.5 0 0 1-9.4 9.1 50 50 0 0 1-5.7 3.7l-3 1.5-1.6.7-1.6.7A50.5 50.5 0 0 1 2.7 67.2l.5 1.4a51.8 51.8 0 0 0 5.4 10.3 51.1 51.1 0 0 0 14.3 14.2 49.6 49.6 0 0 0 11.2 5.5l4.4 1.6a48.7 48.7 0 0 0 6.7 1.5 51.5 51.5 0 0 0 6.9.5 46.8 46.8 0 0 0 38.2-19.9c.9-1.1 1.7-2.2 2.5-3.4a51.8 51.8 0 0 0 5.3-10.3 50.6 50.6 0 0 0 2.9-24.7l.2 1a51 51 0 0 1 .1 20.2z"></path></g><g id="SvgjsG8902" featureKey="symbolFeature-0" transform="matrix(0.6588713879548344,0,0,0.6588713879548344,15.926690124243159,17.439959304529673)" fill="#e23e57"><path xmlns="http://www.w3.org/2000/svg" d="M91.2,17.9L50.7,1c-0.4-0.2-0.9-0.2-1.3,0L8.8,17.9c-0.7,0.3-1.1,0.9-1.1,1.6v37.5c0,23.3,19,42.2,42.2,42.2  s42.2-19,42.2-42.2V19.5C92.2,18.8,91.8,18.1,91.2,17.9z M88.7,56.9c0,21.4-17.4,38.7-38.7,38.7S11.3,78.3,11.3,56.9V20.6L50,4.5  l38.7,16.2V56.9z M59.9,38H40.1c-3.2,0-5.8,2.5-6,5.7H31c-1.2,0-2.2-1-2.2-2.2v-5.7c0-1-0.8-1.8-1.8-1.8s-1.8,0.8-1.8,1.8v5.7  c0,3.1,2.6,5.7,5.7,5.7h3.1v3.5H20.2c-1,0-1.8,0.8-1.8,1.8s0.8,1.8,1.8,1.8h13.8v3c0,0.1,0,0.3,0,0.4H31c-3.1,0-5.7,2.6-5.7,5.7V69  c0,1,0.8,1.8,1.8,1.8s1.8-0.8,1.8-1.8v-5.7c0-1.2,1-2.2,2.2-2.2h3.6c1.7,6,7.2,10.4,13.7,10.4h3.3c6.5,0,12-4.4,13.7-10.4H69  c1.2,0,2.2,1,2.2,2.2V69c0,1,0.8,1.8,1.8,1.8s1.8-0.8,1.8-1.8v-5.7c0-3.1-2.6-5.7-5.7-5.7h-3.1c0-0.1,0-0.3,0-0.4v-3h13.8  c1,0,1.8-0.8,1.8-1.8s-0.8-1.8-1.8-1.8H65.9v-3.5H69c3.1,0,5.7-2.6,5.7-5.7v-5.7c0-1-0.8-1.8-1.8-1.8s-1.8,0.8-1.8,1.8v5.7  c0,1.2-1,2.2-2.2,2.2h-3.1C65.7,40.5,63.1,38,59.9,38z M37.6,57.2V44c0-1.4,1.1-2.5,2.5-2.5h8.1v26.5C42.4,67.9,37.6,63.1,37.6,57.2  z M51.8,67.9V41.5h8.1c1.4,0,2.5,1.1,2.5,2.5v13.2C62.4,63.1,57.6,67.9,51.8,67.9z M50,23.4c5.6,0,10.2,4.6,10.2,10.2  c0,1-0.8,1.8-1.8,1.8s-1.8-0.8-1.8-1.8c0-3.7-3-6.7-6.7-6.7s-6.7,3-6.7,6.7c0,1-0.8,1.8-1.8,1.8s-1.8-0.8-1.8-1.8  C39.8,28,44.4,23.4,50,23.4z"></path></g><g id="SvgjsG8903" featureKey="nameLeftFeature-0" transform="matrix(2.3456342928676226,0,0,2.3456342928676226,115.52629379422562,20.928925460329832)" fill="#e23e57"><path d="M2.0898 13.789100000000001 l-1.0352 0 c0.58594 -3.3789 3.2227 -6.9629 6.3477 -8.0469 c3.2129 -1.123 5.8691 -0.57617 8.6816 0.94727 l-0.9375 4.0332 l-1.543 0 c-0.22461 -0.54688 -0.078125 -1.6211 -2.3438 -1.8164 c-3.2227 -0.2832 -5.3418 2.5391 -5.7227 4.8828 l1.0352 0 c-0.19531 1.2207 0.068359 2.3242 0.89844 2.7734 c0.54688 0.29297 1.3379 0.42969 2.5098 0.29297 l0.019531 0 l0.36133 -1.582 l-2.3242 0 l0.3418 -1.4844 l-1.0547 0 l0.50781 -2.1875 l7.168 0 l-0.49805 2.1875 l1.0449 0 l-1.2402 5.3809 c-0.49805 0.20508 -1.0156 0.37109 -1.5332 0.54688 c-2.3242 0.71289 -5.3027 1.1914 -7.6172 0.26367 c-2.7441 -1.0742 -3.5156 -3.5742 -3.0664 -6.1914 z M17.519575 13.6328 l-0.89844 0 l1.875 -8.1836 l4.9023 0 l-1.8945 8.1836 l0.9082 0 l-0.64453 2.666 l5.4199 0 l-0.83984 3.6914 l-10.303 0 z M33.593759375 13.6719 l-1.4648 6.3672 l-4.9414 0 l1.4648 -6.3672 l-0.99609 0 l1.9141 -8.2422 l4.9316 0 l-1.8945 8.2422 l0.98633 0 z M43.252078125 13.3594 l-1.4844 6.6797 l-4.9512 0 l1.5234 -6.6797 l-0.88867 0 l0.98633 -4.2773 l-3.9063 0 l0.85938 -3.7012 l12.676 0 l-0.83008 3.7012 l-3.8965 0 l-0.95703 4.2773 l0.86914 0 z M51.16208125 13.6328 l1.1133 0 c-0.17578 2.3535 1.4258 4.1211 5.9375 1.2207 l1.4648 0 l-0.91797 3.9844 c-4.9512 2.8516 -12.295 1.9922 -11.221 -5.2051 l-1.1035 0 c0.058594 -0.26367 0.11719 -0.57617 0.19531 -0.91797 c0.99609 -4.3652 4.3262 -7.5391 8.9648 -7.5391 c2.5586 0 4.0332 0.73242 4.9121 1.3379 l-0.94727 4.082 l-1.5723 0 c-3.5352 -3.8086 -6.5918 0.078125 -6.8262 3.0371 z M73.886375 13.6719 l-1.4844 6.3672 l-4.8926 0 l1.3867 -5.9766 l-2.832 0 l-1.3965 5.9766 l-4.9219 0 l1.4746 -6.3672 l-0.98633 0 l1.8848 -8.2422 l4.9219 0 l-1.123 4.9512 l2.8223 0 l1.1426 -4.9512 l4.9023 0 l-1.9043 8.2422 l1.0059 0 z"></path></g><g id="SvgjsG8904" featureKey="nameRightFeature-0" transform="matrix(2.5714285714285716,0,0,2.5714285714285716,294.9142849785941,17.57142857142857)" fill="#e23e57"><path d="M10.06 8.66 l-5.86 0 l0 3.06 l4.82 0 l0 2.5 l-4.82 0 l0 5.78 l-3 0 l0 -14 l8.86 0 l0 2.66 z M14.879999999999999 6 l0 14 l-2.92 0 l0 -14 l2.92 0 z M29.68 20 l-3.44 0 l-3.02 -4.5 l-3 4.5 l-3.44 0 l4.7 -7.08 l-4.64 -6.92 l3.44 0 l2.92 4.34 l2.88 -4.34 l3.44 0 l-4.6 6.92 z"></path></g>
			</g>
		</svg>
	